<svg width="185" height="64" viewBox="0 0 185 64" fill="none" xmlns="http://www.w3.org/2000/svg">
<path d="M51.9576 8.42293C47.4379 6.03039 41.6495 3.94662 36.3717 1.60762C36.1993 1.53001 36.0788 1.47647 36.0118 1.48519C33.5746 0.519206 30.9365 -0.00176189 28.1895 4.47692e-06C26.7918 4.47692e-06 25.4711 0.0759584 24.2189 0.222567C21.2661 0.569327 18.6933 1.32831 16.482 2.47193C11.7767 4.47267 6.84869 6.32879 2.89319 8.42293C0.116139 9.89255 -0.140012 12.6387 0.0474679 13.8065C0.549699 16.946 2.63201 25.1775 3.06053 26.8162C3.42542 28.2152 4.93029 29.264 6.74649 29.5124C7.77763 35.1996 10.4074 40.2106 14.1067 43.8503C15.9966 45.7064 18.1676 47.2054 20.5447 48.2404C22.92 49.2754 25.5028 49.8446 28.1894 49.8429C31.2494 49.8447 34.1737 49.1046 36.8135 47.7816C40.7756 45.7944 44.1001 42.5049 46.4336 38.4116C48.0254 35.6206 49.1588 32.4483 49.7195 29.045C50.764 28.5585 51.5424 27.7684 51.7901 26.8162C52.2186 25.1775 54.3011 16.946 54.8032 13.8065C54.9908 12.6387 54.7346 9.89255 51.9576 8.42293ZM41.0034 39.7276C39.3378 41.701 37.3676 43.2828 35.2016 44.3678C33.0355 45.4545 30.677 46.0479 28.1895 46.0479C26.0068 46.0479 23.921 45.5891 21.9777 44.7438C20.0359 43.8986 18.2364 42.6634 16.6479 41.1041H16.6496C16.1943 40.659 15.7607 40.1829 15.3439 39.6844C15.3539 39.6948 15.3656 39.7069 15.3774 39.7172C24.7145 34.7665 32.8599 25.2603 32.2707 14.5275C31.9827 9.31981 29.7364 5.96989 27.0564 3.81547C27.4281 3.80344 27.803 3.79472 28.1897 3.79472C30.7189 3.79648 33.111 4.31226 35.2838 5.26952C36.1542 5.65249 36.9878 6.10789 37.7829 6.62885C38.4593 8.5298 39.3297 11.0948 40.4076 14.5533C38.8877 24.5651 42.3795 28.6067 45.8998 29.4105C45.0761 33.4021 43.3453 36.9539 41.0034 39.7276Z" fill="#FB391E"/>
<path d="M28.588 33.9835C25.8612 33.9835 23.6499 35.8361 23.6499 38.1234C23.6499 40.4108 25.8612 42.2634 28.588 42.2634C31.3148 42.2634 33.5261 40.4108 33.5261 38.1234C33.5261 35.8361 31.3148 33.9835 28.588 33.9835Z" fill="#FB391E"/>
<path d="M63.5396 16.3844C63.5396 18.9468 62.896 21.2982 61.6088 23.4385C60.3217 25.5789 58.4494 27.3274 55.9921 28.6839C53.5348 30.0405 50.6094 30.8394 47.2159 31.0805L45.329 41.9783C44.5977 46.1686 42.6084 48.2638 39.3612 48.2638C37.5767 48.2638 35.9239 47.7212 34.4027 46.6359C32.9107 45.5506 31.7113 43.8926 30.8044 41.6618C29.8975 39.431 29.4441 36.6877 29.4441 33.4319C29.4441 27.3123 30.3949 22.1272 32.2964 17.8766C34.2271 13.5959 36.8015 10.4004 40.0194 8.29015C43.2666 6.14979 46.8356 5.0796 50.7264 5.0796C53.4762 5.0796 55.8019 5.57701 57.7034 6.57183C59.6342 7.56665 61.0823 8.92322 62.0477 10.6415C63.0423 12.3297 63.5396 14.244 63.5396 16.3844ZM48.0058 26.423C54.0028 25.6392 57.0013 22.4286 57.0013 16.7913C57.0013 14.8017 56.3578 13.1889 55.0706 11.9529C53.8127 10.6868 51.8526 10.0537 49.1905 10.0537C46.1774 10.0537 43.5445 11.0334 41.292 12.9929C39.0687 14.9524 37.3427 17.6806 36.114 21.1776C34.9146 24.6444 34.3149 28.6086 34.3149 33.0702C34.3149 34.9392 34.4904 36.5973 34.8415 38.0443C35.2218 39.4913 35.6898 40.6218 36.2457 41.4357C36.8307 42.2195 37.3866 42.6114 37.9131 42.6114C38.6445 42.6114 39.2003 41.5714 39.5806 39.4913L41.0287 30.9449C39.8878 30.764 39.3905 30.6886 39.5367 30.7188C38.6591 30.5681 38.0887 30.2968 37.8254 29.9049C37.5621 29.4828 37.4304 28.9553 37.4304 28.3222C37.4304 27.659 37.606 27.1314 37.957 26.7395C38.3373 26.3476 38.8493 26.1517 39.4928 26.1517C39.7854 26.1517 40.0048 26.1667 40.1511 26.1969C40.8532 26.3175 41.3944 26.3928 41.7747 26.423C42.155 24.0716 42.6962 20.9213 43.3983 16.9722C43.5738 15.9472 43.9687 15.2237 44.583 14.8017C45.2266 14.3495 45.9726 14.1234 46.821 14.1234C47.7864 14.1234 48.4738 14.3194 48.8834 14.7113C49.3222 15.073 49.5416 15.6609 49.5416 16.4748C49.5416 16.9571 49.5123 17.349 49.4538 17.6505L48.0058 26.423Z" fill="url(#paint0_linear_1073_812)"/>
<path d="M82.2277 33.2511C82.608 33.2511 82.9006 33.4319 83.1054 33.7937C83.3394 34.1554 83.4564 34.6529 83.4564 35.2859C83.4564 36.4918 83.1785 37.4263 82.6227 38.0895C81.5403 39.4461 80.0044 40.6971 78.0152 41.8427C76.0552 42.9882 73.9489 43.561 71.6963 43.561C68.6247 43.561 66.2405 42.7018 64.5437 40.9835C62.847 39.2652 61.9986 36.9138 61.9986 33.9293C61.9986 31.8493 62.4228 29.9199 63.2712 28.1413C64.1195 26.3325 65.2897 24.9006 66.7817 23.8455C68.3029 22.7904 70.0142 22.2628 71.9157 22.2628C73.6124 22.2628 74.9728 22.7904 75.9967 23.8455C77.0205 24.8705 77.5325 26.2723 77.5325 28.0509C77.5325 30.1309 76.8011 31.9246 75.3384 33.4319C73.905 34.9091 71.4623 36.0848 68.0103 36.959C68.7417 38.3457 70.1312 39.0391 72.179 39.0391C73.4954 39.0391 74.9874 38.5718 76.6549 37.6373C78.3516 36.6726 79.8143 35.4216 81.043 33.8841C81.394 33.4621 81.7889 33.2511 82.2277 33.2511ZM71.1697 26.6943C70.0873 26.6943 69.1659 27.3424 68.4053 28.6387C67.6739 29.935 67.3082 31.5026 67.3082 33.3415V33.4319C69.0342 33.0099 70.3945 32.3768 71.3892 31.5327C72.3838 30.6887 72.8811 29.7089 72.8811 28.5935C72.8811 28.0207 72.7202 27.5685 72.3984 27.2369C72.1059 26.8752 71.6963 26.6943 71.1697 26.6943Z" fill="url(#paint1_linear_1073_812)"/>
<path d="M99.4544 33.2511C99.8347 33.2511 100.127 33.4319 100.332 33.7937C100.566 34.1554 100.683 34.6529 100.683 35.2859C100.683 36.4918 100.405 37.4263 99.8494 38.0895C98.5915 39.6872 97.2165 40.9986 95.7246 42.0236C94.2326 43.0485 92.5213 43.561 90.5905 43.561C84.6227 43.561 81.6388 39.235 81.6388 30.5831C81.6388 29.2567 81.6827 27.9152 81.7704 26.5586H80.0591C79.1814 26.5586 78.5817 26.3928 78.2599 26.0612C77.9674 25.7296 77.8211 25.2021 77.8211 24.4786C77.8211 22.7904 78.4793 21.9463 79.7958 21.9463H82.297C82.7943 18.6302 83.5549 15.6006 84.5788 12.8573C85.6027 10.114 86.8314 7.9284 88.2648 6.30052C89.7275 4.67263 91.2926 3.85869 92.9601 3.85869C94.1887 3.85869 95.1541 4.41639 95.8562 5.53179C96.5583 6.6472 96.9093 8.04899 96.9093 9.73716C96.9093 14.4098 95.0078 18.4795 91.2048 21.9463H96.1195C96.5876 21.9463 96.924 22.0518 97.1288 22.2628C97.3335 22.4739 97.4359 22.8658 97.4359 23.4385C97.4359 25.5186 95.7831 26.5586 92.4774 26.5586H87.1239C87.0654 28.0659 87.0361 29.2416 87.0361 30.0857C87.0361 33.2209 87.3872 35.4216 88.0893 36.6877C88.8206 37.9538 89.9615 38.5869 91.512 38.5869C92.7699 38.5869 93.8816 38.195 94.8469 37.4112C95.8123 36.6274 96.9532 35.4517 98.2697 33.8841C98.6207 33.4621 99.0156 33.2511 99.4544 33.2511ZM91.7753 8.19972C91.3365 8.19972 90.8391 8.77249 90.2833 9.91804C89.7568 11.0334 89.2448 12.601 88.7475 14.6208C88.2794 16.6105 87.8845 18.8262 87.5627 21.268C89.2887 19.7306 90.5759 18.0122 91.4242 16.113C92.3018 14.1837 92.7407 12.4352 92.7407 10.8676C92.7407 9.08902 92.4189 8.19972 91.7753 8.19972Z" fill="url(#paint2_linear_1073_812)"/>
<path d="M105.272 44.5558C103.751 44.5558 102.581 44.1941 101.762 43.4706C100.972 42.7471 100.577 41.9331 100.577 41.0287C100.577 40.2449 100.855 39.5667 101.411 38.9939C101.966 38.4211 102.786 38.1347 103.868 38.1347C104.248 38.1347 104.687 38.1799 105.184 38.2704C105.711 38.3307 106.106 38.3759 106.369 38.406C106.34 37.6222 106.164 36.8837 105.843 36.1903C105.55 35.4969 105.17 34.8337 104.702 34.2007C104.234 33.5374 103.795 32.9647 103.385 32.4823C102.478 34.261 101.571 35.7381 100.665 36.9138C99.787 38.0895 98.8216 39.2049 97.7685 40.26C97.2419 40.8026 96.6861 41.074 96.101 41.074C95.6329 41.074 95.2526 40.9081 94.9601 40.5765C94.6675 40.2148 94.5213 39.7777 94.5213 39.2652C94.5213 38.6623 94.726 38.1046 95.1356 37.5921L95.706 36.8686C97.315 34.8186 98.5291 33.1305 99.3482 31.8041C99.8455 30.9298 100.431 29.7692 101.103 28.3222C101.776 26.845 102.434 25.3227 103.078 23.7551C103.634 22.4286 104.789 21.7654 106.545 21.7654C107.364 21.7654 107.934 21.8408 108.256 21.9915C108.578 22.1423 108.739 22.3834 108.739 22.715C108.739 22.8959 108.68 23.1823 108.563 23.5742C108.446 23.9661 108.285 24.358 108.08 24.7499C107.554 25.8351 107.291 26.7546 107.291 27.5082C107.291 27.9604 107.437 28.4578 107.729 29.0005C108.051 29.5431 108.534 30.2214 109.177 31.0353C110.114 32.3015 110.816 33.3867 111.284 34.2911C111.781 35.1653 112.03 36.13 112.03 37.1851C112.03 37.4866 112.001 37.9086 111.942 38.4512C113.375 37.8785 115.058 36.3561 116.988 33.8841C117.339 33.4621 117.734 33.2511 118.173 33.2511C118.553 33.2511 118.846 33.4319 119.051 33.7937C119.285 34.1554 119.402 34.6529 119.402 35.2859C119.402 36.4315 119.124 37.366 118.568 38.0895C117.105 39.9585 115.701 41.2398 114.355 41.9331C113.039 42.5963 111.401 42.9581 109.441 43.0184C108.271 44.0433 106.881 44.5558 105.272 44.5558Z" fill="url(#paint3_linear_1073_812)"/>
<path d="M140.191 33.2511C140.571 33.2511 140.864 33.4319 141.068 33.7937C141.302 34.1554 141.419 34.6529 141.419 35.2859C141.419 36.4918 141.141 37.4263 140.586 38.0895C139.24 39.6872 137.85 40.9986 136.417 42.0236C135.013 43.0485 133.404 43.561 131.59 43.561C130.098 43.561 128.972 43.1239 128.211 42.2496C127.451 41.3453 127.07 40.049 127.07 38.3608C127.07 37.5167 127.275 36.0094 127.685 33.8389C128.065 31.9397 128.255 30.6284 128.255 29.9049C128.255 29.4225 128.094 29.1813 127.772 29.1813C127.392 29.1813 126.851 29.6938 126.149 30.7188C125.447 31.7136 124.745 33.04 124.043 34.6981C123.34 36.3561 122.77 38.1046 122.331 39.9435C121.775 42.3552 120.4 43.561 118.206 43.561C117.329 43.561 116.744 43.2445 116.451 42.6114C116.188 41.9482 116.056 40.7725 116.056 39.0843C116.056 38.1196 116.071 37.3509 116.1 36.7781L116.144 33.1606C116.144 28.5181 116.597 23.6797 117.504 18.6453C118.44 13.6109 119.801 9.39048 121.585 5.98398C123.399 2.54734 125.564 0.829013 128.08 0.829013C129.425 0.829013 130.508 1.43193 131.327 2.63778C132.175 3.81347 132.599 5.35092 132.599 7.25012C132.599 10.2949 131.736 13.4602 130.01 16.7461C128.284 20.0019 125.476 23.8154 121.585 28.1865C121.497 29.7541 121.454 31.3669 121.454 33.025C122.419 30.4626 123.487 28.3825 124.657 26.7847C125.856 25.1569 127.026 23.9962 128.167 23.3029C129.337 22.6095 130.405 22.2628 131.371 22.2628C133.272 22.2628 134.223 23.2426 134.223 25.2021C134.223 26.3778 133.901 28.5031 133.258 31.578C132.702 34.2007 132.424 35.9341 132.424 36.7781C132.424 37.984 132.848 38.5869 133.696 38.5869C134.281 38.5869 134.969 38.2252 135.759 37.5016C136.578 36.748 137.66 35.5422 139.006 33.8841C139.357 33.4621 139.752 33.2511 140.191 33.2511ZM127.158 5.3057C126.631 5.3057 126.046 6.0895 125.403 7.65709C124.759 9.19454 124.13 11.2897 123.516 13.9425C122.931 16.5652 122.448 19.4291 122.068 22.5342C123.882 20.3335 125.374 17.9369 126.544 15.3443C127.743 12.7518 128.343 10.4004 128.343 8.29015C128.343 7.32548 128.24 6.5869 128.036 6.07442C127.831 5.56194 127.538 5.3057 127.158 5.3057Z" fill="url(#paint4_linear_1073_812)"/>
<path d="M160.242 29.4527C160.623 29.4527 160.915 29.6486 161.12 30.0405C161.325 30.4324 161.427 30.9298 161.427 31.5327C161.427 32.9797 161.003 33.8389 160.154 34.1102C158.399 34.7433 156.468 35.105 154.362 35.1955C153.806 37.7277 152.709 39.7626 151.071 41.3C149.433 42.8074 147.575 43.561 145.498 43.561C143.743 43.561 142.236 43.1239 140.979 42.2496C139.75 41.3754 138.814 40.2148 138.17 38.7678C137.527 37.3208 137.205 35.7532 137.205 34.065C137.205 31.7739 137.629 29.739 138.477 27.9604C139.326 26.1517 140.496 24.7499 141.988 23.7551C143.48 22.7301 145.133 22.2176 146.946 22.2176C149.17 22.2176 150.954 23.0165 152.3 24.6142C153.675 26.1818 154.479 28.1262 154.713 30.4475C156.088 30.357 157.726 30.0556 159.628 29.5431C159.862 29.4828 160.067 29.4527 160.242 29.4527ZM145.849 38.7678C146.785 38.7678 147.59 38.3759 148.263 37.5921C148.965 36.8083 149.433 35.6778 149.667 34.2007C148.76 33.5676 148.058 32.7386 147.561 31.7136C147.093 30.6887 146.859 29.6034 146.859 28.4578C146.859 27.9755 146.902 27.4932 146.99 27.0108H146.771C145.601 27.0108 144.621 27.5987 143.831 28.7744C143.07 29.9199 142.69 31.5478 142.69 33.658C142.69 35.3161 142.997 36.5822 143.611 37.4564C144.255 38.3307 145.001 38.7678 145.849 38.7678Z" fill="url(#paint5_linear_1073_812)"/>
<path d="M175.038 29.5431C175.038 31.9246 174.496 34.1856 173.414 36.326C172.361 38.4362 170.942 40.1545 169.158 41.4809C167.402 42.8074 165.515 43.5007 163.497 43.561C163.117 49.3792 162.254 54.2327 160.908 58.1215C159.562 62.0405 157.588 64 154.984 64C153.404 64 152.234 63.4122 151.474 62.2365C150.713 61.0608 150.333 59.4329 150.333 57.3528C150.333 54.3985 150.991 50.9468 152.307 46.9976C153.624 43.0787 155.657 38.7527 158.407 34.0198C158.407 29.6185 158.378 26.5586 158.319 24.8403C158.29 23.9661 158.626 23.2727 159.328 22.7602C160.03 22.2478 160.908 21.9915 161.961 21.9915C162.575 21.9915 163.014 22.1272 163.278 22.3985C163.57 22.6397 163.731 23.1371 163.76 23.8907C163.76 24.6444 163.775 25.2021 163.804 25.5638C164.74 24.358 165.662 23.4988 166.569 22.9863C167.476 22.4437 168.441 22.1724 169.465 22.1724C171.103 22.1724 172.434 22.8507 173.458 24.2073C174.511 25.5638 175.038 27.3424 175.038 29.5431ZM163.716 39.22C164.77 38.9788 165.735 38.391 166.613 37.4564C167.519 36.4918 168.236 35.3161 168.763 33.9293C169.289 32.5125 169.553 31.0353 169.553 29.4979C169.553 28.5935 169.377 27.9152 169.026 27.463C168.675 26.9807 168.207 26.7395 167.622 26.7395C166.569 26.7395 165.296 27.8851 163.804 30.1762C163.775 31.5026 163.76 33.447 163.76 36.0094C163.76 37.3961 163.746 38.4663 163.716 39.22ZM155.335 59.5685C156.125 59.5685 156.783 57.7899 157.31 54.2327C157.836 50.7056 158.173 46.3043 158.319 41.0287C157.061 44.0433 156.066 46.9223 155.335 49.6656C154.604 52.4089 154.238 54.715 154.238 56.5841C154.238 57.5488 154.355 58.2873 154.589 58.7998C154.794 59.3123 155.043 59.5685 155.335 59.5685Z" fill="url(#paint6_linear_1073_812)"/>
<path d="M180.744 43.561C179.456 43.561 178.476 43.1992 177.804 42.4757C177.16 41.7522 176.838 40.8026 176.838 39.6269C176.838 38.2704 177.204 37.1851 177.935 36.3712C178.696 35.5572 179.749 35.1503 181.095 35.1503C182.382 35.1503 183.347 35.4819 183.991 36.1451C184.664 36.7781 185 37.7277 185 38.9939C185 40.3806 184.62 41.496 183.859 42.3401C183.098 43.154 182.06 43.561 180.744 43.561Z" fill="#FB391E"/>
<defs>
<linearGradient id="paint0_linear_1073_812" x1="0" y1="32" x2="185" y2="32" gradientUnits="userSpaceOnUse">
<stop offset="0.48" stop-color="#00CEF7"/>
<stop offset="1" stop-color="#00A2C2"/>
</linearGradient>
<linearGradient id="paint1_linear_1073_812" x1="0" y1="32" x2="185" y2="32" gradientUnits="userSpaceOnUse">
<stop offset="0.48" stop-color="#00CEF7"/>
<stop offset="1" stop-color="#00A2C2"/>
</linearGradient>
<linearGradient id="paint2_linear_1073_812" x1="0" y1="32" x2="185" y2="32" gradientUnits="userSpaceOnUse">
<stop offset="0.48" stop-color="#00CEF7"/>
<stop offset="1" stop-color="#00A2C2"/>
</linearGradient>
<linearGradient id="paint3_linear_1073_812" x1="0" y1="32" x2="185" y2="32" gradientUnits="userSpaceOnUse">
<stop offset="0.48" stop-color="#00CEF7"/>
<stop offset="1" stop-color="#00A2C2"/>
</linearGradient>
<linearGradient id="paint4_linear_1073_812" x1="0" y1="32" x2="185" y2="32" gradientUnits="userSpaceOnUse">
<stop offset="0.48" stop-color="#00CEF7"/>
<stop offset="1" stop-color="#00A2C2"/>
</linearGradient>
<linearGradient id="paint5_linear_1073_812" x1="0" y1="32" x2="185" y2="32" gradientUnits="userSpaceOnUse">
<stop offset="0.48" stop-color="#00CEF7"/>
<stop offset="1" stop-color="#00A2C2"/>
</linearGradient>
<linearGradient id="paint6_linear_1073_812" x1="0" y1="32" x2="185" y2="32" gradientUnits="userSpaceOnUse">
<stop offset="0.48" stop-color="#00CEF7"/>
<stop offset="1" stop-color="#00A2C2"/>
</linearGradient>
</defs>
</svg>
